# xmcd
# 
# Track frame offsets:
#     150
#     15267
#     28135
#     42877
#     55442
#     75985
#     91580
#     102365
#     115552
#     128545
#     143202
#     156327
#     178347
#     191580
#     207415
#     226007
#     242505
#     255125
# 
# Disc length: 3559
# 
# Revision: 2
# Processed by: cddbd v1.5.2PL0 Copyright (c) Steve Scherf et al.
# Submitted via: fre:ac v1.0.27
# 
DISCID=d70de512
DTITLE=Aretha Franklin - Love Songs
DYEAR=2001
DGENRE=Soul
TTITLE0=I Wonder (Where You Are Tonight)
TTITLE1=Skylark
TTITLE2=Laughing On The Outside
TTITLE3=Without The One You Love
TTITLE4=This Bitter Earth
TTITLE5=Drinking Again
TTITLE6=Muddy Water
TTITLE7=Trouble In Mind
TTITLE8=Just For A Thrill
TTITLE9=Try A Little Tenderness
TTITLE10=I Wish I Didn't Love You So
TTITLE11=Only The Lonely
TTITLE12=But Beautiful
TTITLE13=What A Diff'rence A Day Makes
TTITLE14=If Ever I Would Leave You
TTITLE15=Unforgettable
TTITLE16=Walk On By
TTITLE17=Over The Rainbow
EXTD=
EXTT0=
EXTT1=
EXTT2=
EXTT3=
EXTT4=
EXTT5=
EXTT6=
EXTT7=
EXTT8=
EXTT9=
EXTT10=
EXTT11=
EXTT12=
EXTT13=
EXTT14=
EXTT15=
EXTT16=
EXTT17=
PLAYORDER=
